<svg id="typescript" xmlns="http://www.w3.org/2000/svg" width="50" height="50" viewBox="0 0 50 50">
  <path id="Path_13" data-name="Path 13" d="M0,25V0H50V50H0" fill="#007acc"/>
  <path id="Path_14" data-name="Path 14" d="M87.7,184.361V186.4h6.5v18.5h4.613V186.4h6.5v-2a15.579,15.579,0,0,0-.05-2.062c0-.038-3.963-.05-8.775-.05l-8.75.038v2.05Zm29.212-2.087a6.052,6.052,0,0,1,3.125,1.788,7.865,7.865,0,0,1,1.2,1.6c0,.075-2.162,1.538-3.475,2.35-.05.038-.25-.175-.45-.5a2.858,2.858,0,0,0-2.35-1.4c-1.5-.1-2.5.688-2.5,2a1.975,1.975,0,0,0,.225.95c.337.688.962,1.1,2.9,1.95,3.575,1.538,5.125,2.55,6.063,4a7.283,7.283,0,0,1,.588,6.087c-.8,2.088-2.75,3.5-5.538,3.963a15.593,15.593,0,0,1-3.812-.037,9.437,9.437,0,0,1-5.087-2.663,8.934,8.934,0,0,1-1.3-1.925l.475-.3,1.875-1.087,1.412-.825.325.438a6.8,6.8,0,0,0,1.875,1.825,4.647,4.647,0,0,0,4.875-.25,1.873,1.873,0,0,0,.662-1.5,1.929,1.929,0,0,0-.375-1.275c-.4-.55-1.2-1-3.45-2-2.588-1.1-3.687-1.8-4.713-2.875a7.1,7.1,0,0,1-1.375-2.5,9.573,9.573,0,0,1-.075-3.213,6.09,6.09,0,0,1,5.125-4.75,12.116,12.116,0,0,1,3.8.125l-.025.025Z" transform="translate(-76.737 -159.273)" fill="#fff"/>
</svg>
